#!OML:ASF F:\VICON\USERDATA\INSTALL\rory3\rory3.ASF
:FULLY-SPECIFIED
:DEGREES
61
root -0.3717501550580269 18.288795761545362 33.380979286669024 -0.7057705181413421 0.853889656616635 -4.927392936065447
lfemur -13.807506862019894 1.774673673364676 -15.322555090956232
ltibia 83.98594751324893
lfoot 11.407223198387157 -12.920575432288908
ltoes -6.173116457139444
rfemur -17.61021884712763 4.125125498982317 32.22559696118728
rtibia 37.97781283867539
rfoot -6.19280626540675 -5.054067509894049
rtoes 11.257134523625078
lowerback 12.238355716014986 -0.2241240018865105 2.6198642757140185
upperback -0.01819068019111819 0.19186615968951037 3.1934615059609897
thorax -7.143692053177264 0.08653407888581721 1.4927973661644143
lowerneck -17.412099501403205 -2.7760545581715115 -2.4529914921069267
upperneck 17.66980272093482 -3.7007164141622853 2.3441535111871357
head 8.473506899890536 -1.6534056959025643 0.7194706757883318
lclavicle -2.6050629454595943e-15 4.4402940605382597e-16
lhumerus -35.21938302155098 -9.927999616551778 92.2248356914226
lradius 70.53291561449758
lwrist 18.7613350165152
lhand -25.773082227506844 11.665318151264646
lfingers 7.125019999999999
lthumb 0.7648953837484014 41.64646856616123
rclavicle -2.6050629454595943e-15 4.4402940605382597e-16
rhumerus -45.2777731455863 -9.275810125458221 -86.38605451248233
rradius 63.03058811932641
rwrist 0.5504122978300101
rhand -15.936686372094114 31.640361220543305
rfingers 7.125019999999999
rthumb 10.261341158105957 2.0481609678298414
62
root -0.6676397376187321 18.477020146485465 34.20391158927583 2.162146297722919 1.1681719479739996 -4.974909911185958
lfemur -24.803017389650357 5.687947246394409 -15.733212900737293
ltibia 101.07937701151371
lfoot 8.346723934292301 -11.594606634554566
ltoes -10.902824961273879
rfemur -15.75267706975323 3.0330729610521967 34.67502426794236
rtibia 47.93123260872831
rfoot -3.3638140989938563 -5.1576552749519395
rtoes 13.287882227701866
lowerback 15.030691213482681 0.563252527887657 3.5502876784157698
upperback -0.5842988676105977 1.460149632818372 3.162319629546178
thorax -9.460735942150839 0.6430573923554835 0.47212936586429655
lowerneck -18.708027128463865 -3.001846710248426 -2.330953931071413
upperneck 13.9623294861571 -4.197400794953221 3.3680882309680427
head 7.565505990701652 -1.7322401033676846 0.9612072927830853
lclavicle -1.3971850904694951e-15 2.0242434098939153e-15
lhumerus -47.34568832396882 -16.277772105544674 99.68729309014971
lradius 112.09600373463603
lwrist 33.73986617310022
lhand -25.030647321337415 0.5361038796298403
lfingers 7.12502
lthumb 1.4819423949270871 30.517582351798314
rclavicle -1.3971850904694951e-15 2.0242434098939153e-15
rhumerus -54.652672905130565 7.026227988813809 -97.004789571499
rradius 106.5976808471626
rwrist -9.381045712639276
rhand -15.442006601157216 39.634389410182
rfingers 7.12502
rthumb 10.738708944620447 10.087085008364967
63
root -0.651630316123323 18.3408564661593 34.9559649741641 2.6528007042537904 -0.23208756560657384 -5.355980616336973
lfemur -30.605546100133573 6.558798563754429 -15.295439890389531
ltibia 94.21934240168733
lfoot 3.308981230420523 -8.389134579317183
ltoes -11.212593555125915
rfemur -10.395238048679108 3.412531510298729 35.781705307198806
rtibia 46.87958044669105
rfoot -6.459904755392529 -5.399666232839682
rtoes 12.729149042061563
lowerback 15.192731445802073 1.1835411704296253 4.6205586723227094
upperback -0.6584602735488165 2.473756270491133 2.9247006630717767
thorax -9.45623940019094 1.056439534545699 -0.6405417099009915
lowerneck -18.976135820702286 -3.090809395936754 -2.2529201485453862
upperneck 13.60938873289423 -4.338103680885886 3.331681203607277
head 7.510349600807089 -1.7842799290590938 0.9251224986720249
lclavicle -9.08932623813514e-16 2.3783137457991803e-15
lhumerus -51.34478336087318 -14.625563439038148 99.22062547144236
lradius 110.86815199894072
lwrist 34.30845292320193
lhand -25.489606314890477 -0.03231495358927128
lfingers 7.12502
lthumb 1.038695415152415 29.94884425439632
rclavicle -9.08932623813514e-16 2.3783137457991803e-15
rhumerus -50.02932317999763 10.187854801754247 -98.60253267221391
rradius 109.60517207728442
rwrist -10.81525910216395
rhand -15.928502911438247 39.315953058130866
rfingers 7.12502
rthumb 10.269326662202849 9.805684506865955
64
root -0.6271309670191669 18.07959947119131 35.83172878463395 3.476995903878141 -1.4734345860705633 -5.920685709936116
lfemur -34.828362137691336 5.492614173681602 -14.230198825010788
ltibia 80.8926040123776
lfoot 1.71707487931501 -5.4544003947596
ltoes -10.920826546182138
rfemur -5.397699169846538 3.710731761712414 36.88039502746334
rtibia 43.93373351740422
rfoot -9.573009623746453 -5.907347590474726
rtoes 11.543255748351974
lowerback 15.140027711871207 1.680616385417702 5.6826315715511635
upperback -0.7892475183845258 3.3164618144663516 2.832236918067477
thorax -9.410986740486415 1.3976780470606416 -1.6679248079350395
lowerneck -19.580573839765133 -3.1584791285383074 -2.1830711435319734
upperneck 13.045005298662122 -4.418468564420346 3.2445229467508865
head 7.416703559913187 -1.8141091496480264 0.878559578633372
lclavicle -9.888334078371778e-16 2.32020315600435e-15
lhumerus -55.01407300344622 -12.815830775559084 98.62161975924087
lradius 109.12288028412546
lwrist 34.39142253288633
lhand -25.985210351673565 -0.5028930923993247
lfingers 7.12502
lthumb 0.5600652817135389 29.476921151005957
rclavicle -9.888334078371778e-16 2.32020315600435e-15
rhumerus -45.60435803557228 13.020394943659834 -99.70792374877786
rradius 112.51458595004715
rwrist -12.136973476322272
rhand -16.512474135843792 39.54036565622365
rfingers 7.12502
rthumb 9.705793531142977 10.042675495833077
65
root -0.5825540286963895 17.76708980386997 36.88969225098697 4.548729550405185 -2.4105140721883287 -6.464280539464449
lfemur -36.855616527970454 2.4267809374883416 -12.358859733014764
ltibia 63.861108734145354
lfoot 1.8621767859183047 -2.496459566859021
ltoes -10.394710524264152
rfemur 0.49319926028447725 4.117318595472259 37.927424570966856
rtibia 40.75206763308326
rfoot -12.176982460545647 -6.398070671411774
rtoes 9.290997057726784
lowerback 14.776804562441376 2.1471930250725992 6.680762050872621
upperback -0.9086412879878736 4.095410236616214 2.861301135197481
thorax -9.261283594170697 1.7159276162709278 -2.4376771257877934
lowerneck -20.30496781797798 -3.217324695590028 -2.078966820200672
upperneck 12.475579308751193 -4.492825579084327 3.213450689856749
head 7.333636663365627 -1.8392158889254393 0.8425752858348474
lclavicle -7.014658489808819e-16 2.5285146111554174e-15
lhumerus -58.01290025294544 -10.726978763235495 97.94112881655386
lradius 106.7907165026064
lwrist 33.979103221250355
lhand -26.30999858080492 -0.43518669339139104
lfingers 7.12502
lthumb 0.24641240881291648 29.541162473588045
rclavicle -7.014658489808819e-16 2.5285146111554174e-15
rhumerus -41.071570734093925 15.30635901685888 -100.27787211216514
rradius 114.97901164716261
rwrist -13.027517123371256
rhand -16.945627781515427 40.10301320230954
rfingers 7.12502
rthumb 9.287727454802754 10.588263131502693
66
root -0.531387062297515 17.428328682985345 36.921210463421204 5.605174146631406 -3.281941300454178 -6.914170734470792
lfemur -37.62434955662564 -1.4894987641514783 -10.47330304499542
ltibia 46.62565044813429
lfoot 2.080699595691271 -0.1822993717036736
ltoes -10.218596391275092
rfemur 6.431438290576899 4.60357758454527 38.54974820704439
rtibia 38.40911267494181
rfoot -14.652286764908423 -6.660387787806682
rtoes 4.636208702912441
lowerback 14.16146462001893 2.5666422290895077 7.335121841475002
upperback -1.040775500489612 4.749413023422506 2.876473813478687
thorax -9.072607487454949 1.9901817612024004 -2.977988770613772
lowerneck -20.913513784874386 -3.316997402153335 -1.9423934657076285
upperneck 12.033340681804162 -4.678709552322783 3.247336064585933
head 7.279309734119656 -1.902765702814898 0.8118964360258877
lclavicle -6.660734612032166e-16 2.554204977538923e-15
lhumerus -60.831320379444406 -8.509412743379611 96.93216377090916
lradius 103.31534804905516
lwrist 33.01906423329669
lhand -26.3462455785581 0.2740135786445046
lfingers 7.12502
lthumb 0.2114308746830571 30.24640566899983
rclavicle -6.660734612032166e-16 2.554204977538923e-15
rhumerus -37.15570076815594 16.63815276693194 -100.50326154098055
rradius 116.56845497245344
rwrist -13.49849479447324
rhand -17.25451010698721 40.59244278935903
rfingers 7.12502
rthumb 8.98952620928076 11.043818380665114
67
root -0.4794531651991918 17.09331525937414 36.55563867497499 6.337331363409785 -3.9602668625902173 -7.0381873446512255
lfemur -37.34006530078839 -4.29528051396539 -9.515191978362363
ltibia 34.455889731797974
lfoot 2.5298253388467873 0.6746960457760016
ltoes -9.78537180584562
rfemur 11.73113451901882 4.970975504910578 38.55531636131139
rtibia 38.77129935515097
rfoot -15.951736277159027 -6.007219146143787
rtoes -2.757091437883138
lowerback 13.590138297555177 2.8961233436108955 7.512127133356362
upperback -1.1522666043606813 5.204977689799129 2.7878079146423325
thorax -8.92029178436343 2.18915180188931 -3.202983475888605
lowerneck -21.209141209569378 -3.475148193313435 -1.808953380403493
upperneck 11.802479972772133 -4.987312154606853 3.336825834894025
head 7.257494696002998 -2.0142360131841817 0.7925197124326762
lclavicle -5.255001507796085e-16 2.656323313691525e-15
lhumerus -63.236855726532795 -6.1181143515078364 95.43064861111681
lradius 99.11332580600599
lwrist 31.463325276984946
lhand -25.979763048442095 1.4047724402968986
lfingers 7.12502
lthumb 0.5653882886407391 31.374980906391894
rclavicle -5.255001507796085e-16 2.656323313691525e-15
rhumerus -34.50627523424364 16.948041417876816 -100.43855292218068
rradius 117.3144468955608
rwrist -13.556493530408835
rhand -17.53446450313168 40.88531983538182
rfingers 7.12502
rthumb 8.71923230271886 11.287583014818862
